<svg width="256" height="256" viewBox="0 0 256 256" fill="none" xmlns="http://www.w3.org/2000/svg">
<g clip-path="url(#clip0_2002_2)">
<path d="M218.498 90.5072V37.4842H165.493L127.991 0L90.5072 37.4842H37.4842V90.5072L0 127.991L37.4842 165.493V218.498H90.5072L127.991 256L165.493 218.498H218.498V165.493L256 127.991L218.498 90.5072Z" fill="#007258"/>
<path d="M209.679 94.1705V46.3213H161.829L127.991 12.5005L94.1705 46.3213H46.3213V94.1705L12.5005 127.991L46.3213 161.829V209.679H94.1705L127.991 243.499L161.829 209.679H209.679V161.829L243.499 127.991L209.679 94.1705Z" stroke="#49CD77" stroke-width="1.42" stroke-miterlimit="10"/>
<path d="M50.666 130.327C51.0083 128.698 51.2684 127.056 51.7202 125.468C52.7606 121.758 54.5403 118.363 56.539 115.091C56.8949 114.516 56.9634 114.009 56.7306 113.352C55.4164 109.533 55.9092 105.782 57.8121 102.359C59.6329 99.0872 61.8369 96.0344 63.9315 92.9131C64.3696 92.256 64.6707 91.7358 64.5338 90.8733C63.9862 87.5741 64.8076 84.4391 66.0397 81.4137C66.204 81.0167 66.6421 80.6744 67.0391 80.4417C78.607 73.6926 90.8046 68.3125 103.427 63.877C112.517 60.6872 121.785 58.0999 131.121 55.7452C133.093 55.2524 135.091 54.6637 137.172 55.2798C139.445 55.9506 141.033 57.5523 140.69 60.3998C140.28 63.7675 138.664 66.6013 136.885 69.3666C134.201 73.5557 130.752 77.1014 127.439 80.7839C126.138 82.2351 124.906 83.7546 123.647 85.2331C123.4 85.5206 123.181 85.8081 122.88 86.0545C123.181 84.1243 123.907 82.3172 125.07 80.825C127.48 77.7585 130.04 74.8015 132.559 71.8308C133.982 70.1469 135.461 68.5315 136.871 66.8477C137.857 65.6703 138.007 64.3287 137.336 62.9324C136.679 61.5497 135.447 61.1801 134.037 61.1938C130.396 61.2485 126.795 61.6182 123.291 62.6175C113.037 65.5608 102.948 69.0244 93.0908 73.1176C86.6155 75.8145 80.1813 78.6346 73.7882 81.5232C71.5704 82.5225 69.5306 83.8641 67.4087 85.0689C67.2034 85.1784 67.0391 85.3563 66.7927 85.5617C70.1467 87.9163 73.4459 90.2299 76.7589 92.5298C83.152 96.979 89.5589 101.428 95.952 105.877C97.4442 106.918 98.909 107.972 100.415 108.971C100.675 109.136 101.154 109.218 101.414 109.081C105.713 107.041 110.189 105.973 114.967 106.22C115.241 106.233 115.515 106.22 116.008 106.22C115.419 103.961 114.858 101.825 114.31 99.6896C113.324 95.8564 112.216 92.0507 111.435 88.1764C110.751 84.7403 110.217 81.2083 111.654 77.7722C111.928 77.1151 112.257 76.4716 112.708 75.4997C114.57 79.3054 116.295 82.8374 118.157 86.6432C117.103 86.2462 116.309 85.9587 115.255 85.5617C115.542 87.6836 115.734 89.6139 116.076 91.5305C116.706 95.1446 117.842 98.6081 119.581 101.853C121.415 105.248 124.208 107.753 127.37 109.875C127.658 110.066 128.068 110.244 128.164 110.518C128.931 112.9 128.835 115.282 128.096 117.829C124.304 114.242 119.95 112.366 114.926 112.134C112.517 112.024 109.354 112.722 107.835 113.653C110.669 115.981 113.543 118.253 116.322 120.621C122.346 125.755 128.301 130.971 134.352 136.077C135.776 137.282 137.46 138.158 139.034 139.171C139.349 139.363 139.718 139.472 140.225 139.678C140.061 137.706 139.937 135.913 139.746 134.12C139.363 130.547 138.979 126.987 138.541 123.414C138.089 119.718 137.583 116.022 137.117 112.325C136.529 107.698 135.94 103.057 135.406 98.4164C134.982 94.816 134.735 91.1882 134.201 87.6152C133.9 85.6164 134.804 84.1379 135.666 82.3993C138.623 87.1223 141.348 91.7906 142.347 97.4308C141.197 96.5272 140.211 95.7332 139.02 94.7886C139.239 96.9653 139.417 98.9504 139.65 100.922C140.02 104.111 140.417 107.287 140.814 110.477C141.183 113.379 141.594 116.282 141.964 119.184C142.429 122.853 142.894 126.508 143.333 130.177C143.716 133.367 144.031 136.556 144.455 139.732C144.496 140.061 145.044 140.472 145.427 140.567C147.932 141.211 150.136 140.239 152.313 139.185C152.464 139.103 152.614 139.007 152.765 138.925C155.681 137.186 155.9 136.68 155.503 133.408C154.996 129.328 154.558 125.235 154.038 121.155C153.559 117.349 153.011 113.557 152.491 109.765C151.82 104.823 151.163 99.895 150.506 94.9529C149.822 89.874 149.151 84.8087 148.439 79.7435C147.617 74.0212 146.728 68.3125 145.906 62.5901C145.55 60.126 145.879 58.6612 147.275 55.6768C149.835 60.4956 153.039 64.9448 154.106 70.6945C152.888 69.7773 151.861 69.0107 150.725 68.1482C150.725 69.5446 150.602 70.804 150.752 72.0224C151.368 77.2383 152.067 82.4541 152.737 87.6699C153.381 92.5709 154.024 97.4718 154.681 102.373C155.27 106.644 155.9 110.915 156.488 115.2C156.954 118.554 157.392 121.895 157.816 125.249C158.131 127.74 158.597 130.218 158.665 132.723C158.816 139.034 155.79 143.442 149.917 145.838C148.822 146.276 147.727 146.728 146.604 147.07C146.029 147.248 145.838 147.508 145.865 148.097C145.961 150.438 146.084 152.779 146.084 155.12C146.084 159.952 145.687 164.73 144.017 169.316C143.866 169.727 143.688 170.124 143.374 170.507C143.374 170.001 143.374 169.494 143.374 168.988C143.469 162.896 142.894 156.858 142.155 150.821C142.046 149.89 142.032 148.932 141.854 148.015C141.772 147.604 141.471 147.043 141.142 146.92C136.679 145.318 133.093 142.416 129.711 139.212C124.194 133.996 118.828 128.589 112.695 124.058C111.682 123.305 110.628 122.62 109.587 121.895C109.505 121.977 109.409 122.059 109.327 122.155C109.546 122.442 109.738 122.771 109.97 123.031C112.736 126.056 115.214 129.26 116.637 133.175C117.774 136.31 117.911 139.513 117.089 142.73C116.651 144.455 115.446 145.701 114.077 146.742C110.696 149.343 106.822 150.931 102.838 152.341C97.896 154.079 92.9266 155.791 88.1077 157.83C84.1651 159.501 80.77 162.129 78.1142 165.538C77.6761 166.099 77.3886 166.907 77.3612 167.605C77.238 171.411 77.7856 175.107 79.7433 178.475C81.8378 182.089 85.137 184.046 89.0387 185.005C94.0081 186.223 98.9775 186.004 103.892 184.471C104.672 184.224 105.069 183.814 105.357 183.047C106.603 179.734 107.903 176.435 109.245 173.163C109.478 172.602 109.423 172.273 109.012 171.89C108.109 171.027 107.232 170.124 106.315 169.261C105.809 168.782 105.699 168.248 106.082 167.673C106.657 166.811 107.246 165.948 107.862 165.113C108.396 164.401 109.026 164.046 109.888 164.675C110.039 164.785 110.491 164.716 110.669 164.566C113.927 161.814 117.007 158.898 119.238 155.092C118.266 154.531 117.294 153.984 117.144 152.71C116.966 151.163 117.253 149.726 118.006 148.371C118.485 147.522 119.129 146.824 120.21 146.878C121.278 146.933 121.744 147.782 122.141 148.576C122.88 150.096 122.688 151.711 122.346 153.285C122.154 154.12 122.237 154.736 122.921 155.325C123.236 155.585 123.51 156.092 123.51 156.489C123.51 156.982 123.195 157.488 123.003 157.981C122.606 157.735 122.182 157.529 121.826 157.242C121.497 156.968 121.237 156.585 121.032 156.338C117.787 159.514 114.625 162.608 111.326 165.853C111.969 166.441 112.749 167.098 113.448 167.81C114.406 168.769 114.461 169.22 113.694 170.37C113.023 171.383 112.27 172.355 111.545 173.327C109.519 176.065 108.245 179.104 107.862 182.513C107.848 182.677 107.862 182.855 107.862 183.184C109.998 182.226 112.024 181.349 114.036 180.419C119.362 177.954 124.4 174.997 128.972 171.287C130.3 170.22 131.491 168.988 132.791 167.879C133.325 167.413 133.435 166.989 133.147 166.332C131.463 162.485 129.821 158.611 128.123 154.764C127.055 152.341 125.905 149.972 124.824 147.563C124.18 146.112 125.111 142.676 126.48 141.567C129.027 144.401 131.573 147.234 134.147 150.109C132.723 151.15 131.806 149.425 130.272 149.658C130.984 151.41 131.628 153.066 132.326 154.709C133.284 156.941 134.489 159.09 135.214 161.39C136.501 165.483 135.611 169.316 133.12 172.766C129.656 177.53 124.933 180.788 119.827 183.485C115.98 185.511 111.969 187.195 107.999 188.975C107.26 189.303 106.904 189.687 106.877 190.494C106.794 193.465 107.465 196.217 109.19 198.681C110.901 201.131 113.858 201.843 116.5 200.433C120.005 198.571 122.866 195.943 125.399 192.931C128.041 189.782 130.587 186.552 133.325 183.485C137.336 178.995 142.347 175.887 147.823 173.492C152.121 171.616 156.42 169.727 160.705 167.824C161.431 167.509 162.115 167.085 162.69 166.784C162.211 163.868 161.65 161.075 161.335 158.241C160.91 154.6 161.307 151.054 163.279 147.85C164.812 145.359 167.249 144.318 169.891 145.208C170.794 145.509 171.698 146.29 172.273 147.084C176.325 152.669 176.38 159.158 172.684 164.963C171.684 166.537 170.315 167.879 169.028 169.234C168.522 169.768 168.508 170.069 168.905 170.617C171.328 173.943 174.696 174.943 178.584 174.45C181.527 174.08 184.074 172.739 186.332 170.849C186.839 170.425 187.113 169.973 187.031 169.234C186.606 165.278 186.25 161.321 185.826 157.365C185.401 153.34 184.95 149.329 184.471 145.318C184.019 141.622 183.512 137.925 183.047 134.229C182.458 129.602 181.911 124.961 181.322 120.334C180.856 116.638 180.364 112.941 179.898 109.245C179.323 104.645 178.748 100.046 178.173 95.4458C177.708 91.7495 177.229 88.0532 176.749 84.357C176.448 81.975 176.092 79.5929 175.819 77.2109C175.613 75.3217 176.818 73.8843 177.53 72.0909C180.72 76.8002 182.787 81.7833 184.087 87.2318C182.595 86.958 182.143 85.6438 181.034 84.6445C181.158 86.4926 181.24 88.108 181.377 89.7097C181.691 93.5292 181.979 97.3623 182.349 101.182C182.663 104.413 183.088 107.616 183.471 110.847C183.923 114.584 184.375 118.321 184.826 122.059C185.223 125.317 185.593 128.561 185.99 131.82C186.442 135.667 186.907 139.5 187.359 143.346C187.742 146.495 188.167 149.644 188.495 152.792C188.988 157.296 189.905 161.759 189.454 166.318C189.221 168.714 188.824 171.068 187.825 173.3C186.031 177.311 182.677 179.159 178.598 180.008C176.558 180.432 174.504 180.501 172.492 179.912C169.727 179.118 168.07 177.01 166.592 174.71C166.03 173.834 165.537 172.917 164.935 171.862C163.58 172.383 162.156 172.821 160.814 173.437C154.722 176.229 148.576 178.926 142.58 181.924C138.801 183.814 135.967 186.976 133.175 190.111C129.821 193.889 126.453 197.668 123.058 201.405C121.593 203.007 119.841 204.239 117.746 204.923H114.817C113.365 204.28 111.819 203.801 110.504 202.952C107.451 200.994 105.987 197.955 105.234 194.505C104.96 193.232 104.741 191.932 104.494 190.618C104.07 190.686 103.755 190.727 103.454 190.768C98.8953 191.398 94.3366 191.973 89.7231 191.316C83.7133 190.453 79.5653 187.277 77.2928 181.637C75.828 177.982 75.4994 174.135 75.4173 170.261C75.4173 169.658 75.4173 169.056 75.4173 168.454L75.1298 168.344C74.0072 169.275 72.8573 170.151 71.7895 171.123C69.38 173.314 66.6421 173.724 63.7672 172.451C58.8799 170.274 56.4979 166.25 56.142 161.034C55.8545 156.804 57.2235 152.861 58.7157 148.987C59.2769 147.549 59.8519 146.098 60.4132 144.674C59.5781 144.318 58.8252 144.058 58.127 143.675C55.0879 141.978 52.4457 139.856 51.3779 136.351C51.0357 135.201 50.8851 133.983 50.6523 132.805C50.6523 131.97 50.6523 131.121 50.6523 130.286L50.666 130.327ZM97.3347 118.089C94.4735 120.348 91.5028 122.483 88.7649 124.893C84.74 128.438 80.8932 132.189 76.9231 135.803C72.8025 139.554 68.3122 142.744 63.0827 144.811C62.7268 144.948 62.3982 145.359 62.2203 145.729C60.3858 149.493 58.8389 153.367 58.305 157.557C57.8669 160.979 58.3323 164.237 60.509 167.071C61.1798 167.961 62.0286 168.549 63.1512 168.796C65.6016 169.33 67.7373 168.591 69.558 167.044C71.2008 165.647 72.7067 164.087 74.1715 162.499C78.7439 157.543 84.302 154.052 90.4898 151.519C96.0205 149.261 101.592 147.111 107.109 144.811C110.258 143.497 113.16 141.731 115.857 139.664C113.927 132.668 107.301 125.837 97.321 118.075L97.3347 118.089ZM92.8718 113.941C83.7407 106.986 74.7054 100.1 65.4374 93.05C63.7672 95.8428 62.0834 98.4301 60.6459 101.168C59.4412 103.468 59.2769 105.973 60.1394 108.478C60.5775 109.779 61.6453 110.012 62.6036 109.026C62.9458 108.684 63.1922 108.246 63.5482 107.917C63.9726 107.52 64.4654 107.192 64.9445 106.836C65.0677 107.274 65.0404 107.548 64.9719 107.821C64.1642 110.861 62.1655 113.051 59.8656 115.036C59.0579 115.734 58.0312 116.336 57.5657 117.213C56.4021 119.376 55.4164 121.662 54.5266 123.948C53.2123 127.288 52.3225 130.683 53.1576 134.339C54.2802 139.281 58.6609 141.389 63.1101 139.048C68.2712 136.337 72.7341 132.655 77.0327 128.794C80.1129 126.029 83.0973 123.154 86.1227 120.32C88.3542 118.226 90.5719 116.117 92.8855 113.941H92.8718ZM166.345 164.881C168.029 163.826 169.631 162.909 171.123 161.828C171.78 161.349 172.492 160.596 172.67 159.843C173.3 157.214 171.027 152.45 168.686 151.163C167.878 150.725 166.975 150.438 166.099 150.917C164.538 151.779 163.58 153.094 163.484 154.914C163.279 158.487 164.552 161.65 166.359 164.867L166.345 164.881ZM120.69 152.56C120.84 151.492 120.635 150.684 119.827 150.15C119.608 150 119.17 149.945 118.978 150.068C118.814 150.164 118.746 150.629 118.828 150.876C119.088 151.752 119.677 152.313 120.703 152.56H120.69Z" fill="#FFFFF4"/>
<path d="M203.732 125.919C202.746 127.617 201.528 127.617 200.501 125.878C199.57 124.318 199.598 122.579 199.803 120.895C200.077 118.691 200.57 116.528 200.967 114.338C201.076 114.338 201.2 114.351 201.309 114.365C201.241 115.364 201.145 116.364 201.104 117.363C201.049 119.061 200.898 120.758 201.063 122.442C201.145 123.291 201.802 124.085 202.13 124.756C202.938 124.769 202.911 123.496 203.718 124.222V125.906L203.732 125.919Z" fill="#FFFFF4"/>
<path d="M163.949 111.49L164.853 110.532C164.538 110.833 164.237 111.175 163.949 111.49Z" fill="#FFFFF4"/>
<path d="M175.189 94.46C174.997 94.0903 174.19 93.7755 173.71 93.8439C171.588 94.1314 170.233 96.8283 171.205 98.7312C171.63 99.5663 172.177 100.347 172.615 101.168C172.738 101.414 172.848 101.811 172.725 102.003C172.629 102.167 172.533 102.318 172.424 102.482L170.48 104.563C168.987 94.2409 167.482 83.9051 165.935 73.2818C167.194 74.3907 168.207 75.2805 169.425 76.3483C168.317 70.4069 165.428 65.547 162.649 60.5913C161.431 62.0151 160.5 64.7804 160.746 66.2726C161.458 70.4891 162.252 74.6918 162.909 78.922C163.648 83.6998 164.305 88.5049 164.949 93.2963C165.538 97.7592 166.017 102.222 166.592 106.685C166.688 107.452 166.729 108.164 166.496 108.793L164.88 110.518H164.853L163.95 111.504L163.908 111.545C163.84 111.613 163.772 111.695 163.703 111.764C162.471 113.106 161.28 114.447 160.349 115.488C161.581 114.981 162.8 114.173 164.059 113.242C165.058 112.517 166.085 111.737 167.167 110.984C168.864 117.007 168.987 123.14 169.371 129.533C170.534 127.014 170.986 124.646 171.233 122.223C171.657 118.102 171.424 113.982 170.781 109.916C170.726 109.532 170.685 109.177 170.699 108.834C170.699 108.821 170.699 108.793 170.699 108.766C170.74 108.177 171.808 106.589 172.684 105.384C172.738 105.302 172.793 105.234 172.848 105.165C173.341 104.495 173.738 103.988 173.806 103.906C174.148 103.591 174.559 103.495 175.162 103.92C175.531 101.743 176.051 99.6758 176.188 97.5813C176.257 96.5682 175.682 95.4593 175.189 94.4874V94.46ZM174.176 99.5252C173.574 98.7723 173.067 98.2658 172.752 97.6497C172.629 97.4033 172.944 96.9241 173.053 96.5545C173.396 96.664 173.847 96.6777 174.066 96.9105C174.669 97.5813 174.778 98.3616 174.176 99.5252Z" fill="#FFFFF4"/>
<path d="M190.836 87.4781C193.629 92.2832 196.901 96.6503 197.914 102.4C196.709 101.442 195.71 100.648 194.491 99.6757C194.532 100.442 194.532 101.045 194.601 101.633C195.326 107.41 196.038 113.174 196.805 118.937C197.353 123.044 198.064 127.124 198.585 131.231C199.543 138.61 200.132 146.03 199.625 153.463C199.474 155.64 198.42 157.762 197.791 159.911C197.667 159.897 197.558 159.87 197.435 159.856C197.311 158.638 197.147 157.433 197.051 156.215C196.668 151.067 196.408 145.906 195.929 140.759C195.518 136.255 194.902 131.765 194.327 127.274C193.78 123.031 193.191 118.787 192.602 114.543C192.027 110.409 191.439 106.274 190.85 102.14C190.508 99.7305 190.193 97.3074 189.851 94.898C189.809 94.6242 189.755 94.3367 189.631 94.1039C189.002 92.9814 189.084 91.8177 189.495 90.6678C189.864 89.6274 190.343 88.6143 190.822 87.4507L190.836 87.4781Z" fill="#FFFFF4"/>
<path d="M170.274 134.598C169.234 135.926 168.234 137.2 167.194 138.514C164.99 137.597 163.388 136.036 161.992 134.243C161.855 134.065 161.855 133.64 161.978 133.421C162.731 132.052 163.539 130.711 164.456 129.123C166.304 130.587 168.098 131.997 170.055 133.544C170.726 132.586 171.438 131.614 172.095 130.615C173.012 129.218 173.368 129.123 174.587 130.245C176.051 131.587 177.448 132.997 178.871 134.366C178.132 135.557 177.53 136.666 176.804 137.665C175.846 138.979 175.312 138.979 174.121 137.925C172.862 136.816 171.602 135.735 170.288 134.585L170.274 134.598Z" fill="#FFFFF4"/>
<path d="M114.529 52.0215C113.68 53.5 112.845 54.5952 111.49 55.1291C103.016 58.5378 94.5284 61.9055 86.0407 65.3006C85.2056 65.6292 84.3842 65.9988 83.3027 66.4506C84.0694 65.0679 84.6854 63.8769 85.9996 63.2335C92.338 60.1259 98.9639 57.7028 105.59 55.2797C108.205 54.3214 110.792 53.3357 113.393 52.3637C113.68 52.2542 113.968 52.1858 114.516 52.0215H114.529Z" fill="#FFFFF4"/>
<path d="M86.287 168.522C86.7935 169.343 87.3411 170.042 87.656 170.836C87.8203 171.26 87.5875 171.849 87.5328 172.369C87.1084 172.218 86.5882 172.164 86.2596 171.89C83.8776 169.973 84.6442 166.345 87.7518 164.963C90.6404 163.69 93.5837 162.526 96.4859 161.266C100.182 159.678 103.865 158.049 107.561 156.434C107.849 156.311 108.122 156.188 108.601 155.996C108.232 157.666 107.342 158.72 106.014 159.322C102.715 160.815 99.3745 162.197 96.0752 163.69C93.1319 165.031 90.2297 166.455 87.3137 167.865C86.9441 168.043 86.6156 168.303 86.287 168.522Z" fill="#FFFFF4"/>
<path d="M144.811 198.64C145.112 195.833 145.345 193.397 145.673 190.987C145.783 190.234 146.057 189.44 146.467 188.797C147.617 186.962 148.726 186.511 150.711 188.277C152.121 189.522 152.121 190.398 150.903 192.342C150.205 191.822 149.548 191.247 148.808 190.837C148.357 190.576 147.617 190.303 147.275 190.508C146.851 190.741 146.522 191.453 146.481 191.973C146.235 194.93 146.139 197.9 145.865 200.857C145.769 201.857 145.29 202.829 144.674 203.828C144.195 202.747 143.729 201.651 143.223 200.584C142.005 198.065 140.512 195.915 137.336 195.655C136.063 195.56 134.927 193.15 135.16 191.439C135.447 189.385 136.337 188.81 137.98 190.029C139.581 191.234 140.937 192.808 142.21 194.382C143.182 195.587 143.853 197.024 144.825 198.64H144.811Z" fill="#FFFFF4"/>
<path d="M101.893 98.827C102.017 97.1158 102.017 95.6784 102.277 94.282C102.537 92.872 102.865 91.4071 103.523 90.1614C104.33 88.6281 105.357 88.4365 106.521 89.1483C107.602 89.8191 107.78 90.8869 107.041 92.3517C106.972 92.475 106.89 92.5845 106.781 92.7488C106.329 92.3517 105.932 91.9274 105.453 91.5988C104.522 90.9691 103.687 91.2566 103.55 92.3517C103.317 94.2136 103.194 96.0891 103.139 97.9783C103.085 99.8264 103.139 101.675 102.113 103.55C101.565 102.51 101.113 101.565 100.579 100.661C100.045 99.7716 99.5251 98.827 98.7996 98.1152C98.3067 97.6223 97.499 97.2938 96.7872 97.1843C95.3224 96.9652 94.5557 96.3766 94.5147 94.8844C94.4873 94.1862 94.5694 92.9952 94.898 92.8857C95.5414 92.6666 96.6092 92.7761 97.1294 93.2005C98.3478 94.1999 99.3609 95.4593 100.401 96.6504C100.908 97.239 101.305 97.9372 101.921 98.8407L101.893 98.827Z" fill="#FFFFF4"/>
<path d="M101.318 172.41C100.483 171.862 99.6482 171.301 98.5256 170.548C98.4572 171.424 98.334 172.068 98.375 172.711C98.5393 175.038 98.8405 177.366 98.2792 179.693C98.1149 180.364 97.8822 181.007 97.6084 181.883C96.8281 180.583 96.1984 179.474 95.5002 178.406C94.6103 177.064 93.5836 175.914 91.7492 175.983C91.5027 175.983 91.0373 175.627 91.0236 175.408C90.9415 174.491 90.8593 173.532 91.0647 172.656C91.2289 171.944 92.064 172.136 92.4473 172.465C93.5699 173.423 94.6377 174.463 95.6645 175.517C96.1847 176.051 96.568 176.722 97.2114 177.585C97.2935 176.845 97.3483 176.407 97.3894 175.955C97.5537 173.984 97.6084 171.985 97.9233 170.041C98.156 168.59 99.1006 168.125 100.127 168.645C101.975 169.576 102.29 170.562 101.332 172.41H101.318Z" fill="#FFFFF4"/>
<path d="M128.438 99.4156C128.671 97.9234 128.794 96.3902 129.15 94.9254C129.369 94.0081 129.834 93.0909 130.368 92.2969C131.08 91.2291 132.613 91.4755 133.024 92.7076C133.243 93.351 133.147 94.0903 133.202 95.0896C132.422 94.6242 131.97 94.323 131.491 94.0766C130.533 93.6111 129.889 93.9397 129.821 95.0075C129.739 96.089 129.793 97.1705 129.793 98.252C129.793 100.1 129.793 101.948 129.588 103.892C129.259 103.482 128.945 103.071 128.616 102.66C127.767 101.606 126.946 100.525 126.042 99.5115C125.262 98.649 124.263 98.2246 123.072 98.2383C121.689 98.2383 120.649 96.4723 121.347 95.295C121.47 95.0759 122.045 94.9664 122.36 95.0486C124.701 95.6235 126.398 97.1568 127.904 98.9365C128.041 99.1008 128.164 99.2513 128.301 99.4156C128.315 99.4293 128.37 99.4156 128.452 99.4156H128.438Z" fill="#FFFFF4"/>
<path d="M120.293 161.527C122.031 161.622 123.304 162.033 124.399 162.896C126.932 164.881 126.645 167.906 123.811 169.809C122.894 170.425 121.922 170.48 120.922 170.329C120.019 170.206 119.156 169.234 119.266 168.344C119.54 166.085 119.937 163.84 120.293 161.527ZM124.824 166.715C124.098 165.483 123.167 164.607 121.908 164.141C120.977 163.799 120.621 164.004 120.498 164.976C120.416 165.702 120.47 166.441 120.443 167.167C120.429 167.851 120.84 168.07 121.415 168.139C122.798 168.289 123.797 167.564 124.81 166.701L124.824 166.715Z" fill="#FFFFF4"/>
<path d="M144.989 75.6502C144.989 77.5942 143.264 79.7161 141.361 80.1131C140.156 80.3595 138.568 79.2917 138.637 78.046C138.746 76.0883 139.102 74.1307 139.39 72.1867C139.417 71.9814 139.691 71.6939 139.91 71.6528C142.087 71.1326 145.003 73.4325 145.003 75.6502H144.989ZM139.91 74.2265C139.828 75.0205 139.677 75.8419 139.705 76.6633C139.718 77.0466 140.02 77.5668 140.334 77.7448C141.128 78.1965 142.826 77.69 143.305 76.8412C143.51 76.4853 143.524 75.7597 143.291 75.4723C142.47 74.4729 141.402 73.8295 139.91 74.2265Z" fill="#FFFFF4"/>
<path d="M154.284 156.776C153.614 156.379 153.176 156.119 152.655 155.818C152.587 155.845 152.409 155.9 152.286 156.009C151.889 156.338 151.122 156.858 151.191 157.009C151.423 157.556 151.875 158.309 152.354 158.405C153.34 158.583 154.394 158.446 155.407 158.323C156.037 158.241 156.653 157.967 157.351 157.762C157.447 159.008 156.708 159.583 155.914 160.075C154.449 160.993 152.97 161.882 151.478 162.759C150.944 163.073 150.355 163.32 149.794 163.607C149.739 163.512 149.671 163.429 149.616 163.334C150.109 162.717 150.575 162.088 151.095 161.485C151.519 160.993 151.588 160.541 151.122 160.034C150.835 159.733 150.602 159.377 150.355 159.049C149.397 157.775 149.383 157.159 150.492 156.051C151.149 155.393 151.875 154.764 152.683 154.339C153.709 153.792 154.243 154.202 154.284 155.366C154.284 155.708 154.284 156.051 154.284 156.79V156.776Z" fill="#FFFFF4"/>
<path d="M147.659 113.968C147.987 113.229 148.288 112.544 148.603 111.86C148.713 111.86 148.822 111.832 148.932 111.819C149.096 112.257 149.397 112.695 149.411 113.147C149.438 113.859 149.356 114.611 149.192 115.31C149.028 116.035 148.672 116.706 147.796 116.802C146.933 116.898 146.221 116.555 145.756 115.816C144.524 113.9 144.168 111.764 144.277 109.533C144.373 107.63 144.743 105.782 145.838 104.098C145.783 104.823 145.728 105.549 145.646 106.274C145.564 107.027 145.455 107.794 145.331 108.547C144.934 110.984 145.701 112.818 147.686 113.968H147.659Z" fill="#FFFFF4"/>
<path d="M86.1501 88.6692C86.4513 90.0108 85.7668 91.4345 84.6716 91.722C83.4806 92.0369 82.3443 91.325 81.9336 89.9012C81.3723 87.8888 81.7283 85.8764 82.2074 83.9051C82.5907 82.3171 83.1794 80.7701 83.6722 79.2095C83.8365 79.2505 84.0145 79.2916 84.1787 79.3327C83.946 80.6332 83.6859 81.9201 83.4942 83.2206C83.3437 84.22 83.2341 85.2193 83.1383 86.2187C83.1109 86.4925 83.1383 86.8073 83.2341 87.0401C83.5353 87.6972 83.8228 88.3817 84.2609 88.9429C84.9864 89.8739 85.4656 88.4501 86.1501 88.6692Z" fill="#FFFFF4"/>
<path d="M97.7863 75.4858C97.5536 76.7452 97.2798 77.991 97.1155 79.2642C96.9513 80.5647 96.7185 81.8926 96.8417 83.1658C96.9239 84.0556 97.5673 84.8907 97.978 85.8079C98.7036 85.4246 99.1827 85.1645 99.6619 84.8907C100.045 86.246 99.4154 87.6286 98.2929 87.9983C97.1019 88.3953 95.8013 87.7519 95.596 86.287C95.3632 84.6306 95.3496 82.8783 95.6233 81.2355C95.9519 79.2505 96.6775 77.3202 97.2388 75.3625C97.4304 75.4036 97.6221 75.4447 97.8137 75.4858H97.7863Z" fill="#FFFFF4"/>
<path d="M176.065 113.338C175.805 114.762 175.463 116.186 175.326 117.623C175.216 118.883 175.189 120.211 175.435 121.443C175.599 122.292 176.284 123.031 176.832 123.975C177.352 123.195 177.694 122.675 178.05 122.141C178.556 123.236 178.023 125.495 177.133 126.179C176.53 126.645 175.285 126.371 174.86 125.591C174.545 125.03 174.258 124.372 174.203 123.743C173.943 120.265 174.395 116.87 175.682 113.612C175.723 113.516 175.805 113.448 175.86 113.366C175.928 113.366 175.996 113.366 176.065 113.366V113.338Z" fill="#FFFFF4"/>
<path d="M132.011 117.336C131.669 119.088 131.313 120.649 131.066 122.223C130.793 123.962 131.066 125.563 132.572 126.809C133.079 126.344 133.572 125.878 134.092 125.413C134.653 126.727 133.695 128.876 132.408 129.15C131.997 129.232 131.368 129.068 131.094 128.78C130.601 128.274 130.149 127.63 129.971 126.96C129.314 124.578 130.409 119.526 132.025 117.336H132.011Z" fill="#FFFFF4"/>
<path d="M180.501 155.065C180.227 156.352 179.926 157.625 179.707 158.926C179.446 160.486 179.419 162.061 180.323 163.471C180.583 163.881 181.034 164.169 181.404 164.511C181.678 164.1 181.952 163.703 182.212 163.293C182.308 163.156 182.376 163.005 182.472 162.827C183.143 164.155 182.212 166.551 180.925 166.989C179.857 167.345 178.803 166.51 178.57 165.113C178.146 162.608 178.707 160.212 179.323 157.817C179.57 156.858 179.926 155.927 180.24 154.997C180.323 155.024 180.418 155.065 180.501 155.092V155.065Z" fill="#FFFFF4"/>
<path d="M158.966 89.8055C159.391 89.1347 159.747 88.5871 160.103 88.0258C160.814 89.1621 160.527 91.0239 159.528 91.8453C158.884 92.3655 157.803 92.2697 157.241 91.3798C156.666 90.4626 156.133 89.3948 156.009 88.3407C155.722 85.7533 156.338 83.2481 157.283 80.825C157.31 83.8641 155.804 87.177 158.966 89.8055Z" fill="#FFFFF4"/>
<path d="M167.03 186.428C167.208 188.578 166.633 190.398 165.223 191.877C164.442 192.685 163.018 192.425 162.375 191.316C162.019 190.7 161.732 189.974 161.691 189.276C161.417 185.497 162.17 181.87 163.443 178.324C163.498 178.187 163.593 178.064 163.676 177.941C163.785 177.968 163.895 177.995 164.018 178.023C163.689 179.707 163.402 181.391 163.046 183.074C162.621 185.073 162.635 186.962 163.867 188.742C164.47 189.591 164.921 189.481 165.428 188.783C165.989 188.016 166.509 187.209 167.043 186.415L167.03 186.428Z" fill="#FFFFF4"/>
<path d="M154.052 126.932C153.764 128.028 153.395 128.78 152.464 129.273C149.794 130.697 147.179 132.203 144.551 133.681C144.441 133.599 144.346 133.531 144.236 133.449C144.578 132.887 144.784 132.107 145.277 131.806C147.946 130.177 150.684 128.657 153.395 127.11C153.531 127.028 153.709 127.015 154.052 126.932Z" fill="#FFFFF4"/>
<path d="M121.004 68.3123C120.854 69.4623 120.69 70.5985 120.566 71.7485C120.388 73.4187 120.142 75.1162 122.017 76.2251C122.456 75.7459 122.88 75.2805 123.318 74.8013C124.317 75.9923 122.702 78.4976 121.716 78.6345C121.374 78.6756 120.826 78.3059 120.607 77.9774C119.526 76.2388 119.389 74.2948 119.69 72.3372C119.896 70.9545 120.293 69.6129 120.607 68.2439C120.744 68.2713 120.868 68.2987 121.004 68.3123Z" fill="#FFFFF4"/>
<path d="M98.1014 192.356C98.5669 194.642 97.0062 197.325 99.7305 199.132C100.223 198.681 100.689 198.243 101.195 197.791C101.606 199.324 100.579 201.391 99.4156 201.487C98.3205 201.583 97.5949 201.159 97.2116 199.981C96.3354 197.312 97.0199 194.806 98.1014 192.356Z" fill="#FFFFF4"/>
<path d="M73.6239 179.542C74.062 180.774 73.3501 182.321 72.2549 182.636C71.2556 182.924 70.2288 182.116 69.9687 180.747C69.5033 178.351 70.1604 176.147 71.2693 174.053C71.3514 173.902 71.4883 173.793 71.6115 173.669C71.721 173.56 71.8442 173.464 72.1044 173.218C71.7621 174.326 71.3925 175.23 71.2008 176.175C71.0502 176.982 70.9544 177.845 71.105 178.639C71.3651 179.994 71.9675 180.172 73.6376 179.542H73.6239Z" fill="#FFFFF4"/>
<path d="M105.398 136.816C104.618 137.98 103.933 139.198 103.057 140.266C102.208 141.293 101.825 141.225 100.826 140.335C99.5251 139.185 98.2109 138.062 96.8282 136.871C95.7468 138.24 94.7474 139.513 93.748 140.8C91.5987 139.883 90.0244 138.309 88.587 136.597C88.4501 136.433 88.3269 136.05 88.4227 135.899C89.2304 134.448 90.0792 133.024 91.0374 131.382C92.9266 132.887 94.72 134.311 96.6229 135.831C97.3348 134.79 98.033 133.75 98.7311 132.723C99.5936 131.464 99.8811 131.382 100.976 132.408C102.468 133.805 103.879 135.297 105.384 136.816H105.398Z" fill="#FFFFF4"/>
<path d="M80.9753 148.015C81.167 145.961 81.2491 144.236 81.5229 142.525C81.6598 141.621 82.0568 140.732 82.4812 139.91C82.6318 139.623 83.2068 139.363 83.5627 139.376C85.2466 139.472 86.4102 141.512 85.6299 142.99C85.5341 143.168 85.1781 143.305 84.9728 143.278C84.7263 143.237 84.5073 142.99 84.2883 142.826C83.8639 142.511 83.4532 142.196 83.0425 141.881C82.8645 142.361 82.6044 142.826 82.536 143.305C82.2896 145.208 82.1663 147.111 81.8926 149.014C81.7283 150.178 81.4134 151.314 81.167 152.409C79.9486 150.506 78.785 148.685 77.5803 146.81C76.1291 147.618 75.1982 146.974 74.3631 146.043C73.7197 145.318 73.7608 143.483 74.3768 142.744C74.856 142.169 75.4173 142.101 75.9238 142.566C77.1285 143.716 78.2784 144.921 79.4284 146.125C79.9075 146.632 80.3319 147.221 80.9753 148.001V148.015Z" fill="#FFFFF4"/>
<path d="M68.148 148.877C67.8058 150.287 67.3129 151.67 67.1487 153.107C66.9981 154.394 67.0118 155.75 67.2719 157.009C67.532 158.282 68.0659 158.323 68.901 157.324C69.1474 157.036 69.3801 156.749 69.6676 156.407C70.0783 157.529 69.9825 158.597 69.3527 159.501C68.9968 160.007 68.326 160.514 67.7373 160.609C66.8612 160.746 66.0124 160.171 65.8344 159.309C65.588 158.145 65.4511 156.913 65.5743 155.736C65.8344 153.272 66.6421 150.958 68.148 148.891V148.877Z" fill="#FFFFF4"/>
<path d="M75.3899 114.036C74.0346 113.188 73.1311 112.065 72.7752 110.518C72.2823 108.396 73.5418 106.22 75.5679 105.713C76.8684 105.398 77.9089 106.137 77.8952 107.465C77.8952 108.725 77.7172 109.971 77.7172 111.23C77.7172 111.654 77.991 112.106 78.1963 112.503C78.7302 113.571 79.36 114.598 79.8254 115.693C79.976 116.035 79.757 116.528 79.6748 117.185C78.6344 116.213 77.7856 115.433 76.8411 114.557C72.6109 121.894 66.2314 126.727 59.5508 131.231C64.8487 125.536 70.9955 120.635 75.3899 114.036ZM76.6768 111.066C76.6768 110.34 76.8 109.888 76.6494 109.601C76.4304 109.19 76.0333 108.807 75.6227 108.602C75.4173 108.506 74.7191 108.875 74.7328 108.999C74.7739 109.423 74.9245 109.902 75.212 110.203C75.5405 110.546 76.0607 110.71 76.6905 111.066H76.6768Z" fill="#FFFFF4"/>
</g>
<defs>
<clipPath id="clip0_2002_2">
<rect width="256" height="256" fill="white"/>
</clipPath>
</defs>
</svg>
